<?xml version="1.0" encoding="utf-8"?>
<!-- Generator: Adobe Illustrator 25.4.1, SVG Export Plug-In . SVG Version: 6.00 Build 0)  -->
<svg version="1.1" xmlns="http://www.w3.org/2000/svg" xmlns:xlink="http://www.w3.org/1999/xlink" x="0px" y="0px"
	 viewBox="0 0 764.6 190.1" style="enable-background:new 0 0 764.6 190.1;" xml:space="preserve">
<style type="text/css">
	.st0{fill:#FFFFFF;}
</style>
<path class="st0" d="M4.4,19.6v79.3h20.4V8.4h-9.3C9.4,8.4,4.4,13.4,4.4,19.6C4.4,19.6,4.4,19.6,4.4,19.6z"/>
<path class="st0" d="M96.6,19.4v43.4L55.8,8.6l-0.1-0.1H37.2v90.4h20V42.6l42.1,56.1l0.1,0.2h17.1V8.4h-9
	C101.5,8.4,96.6,13.4,96.6,19.4z"/>
<path class="st0" d="M207.3,26.6V8.4H199c-6.5,0-11.7,5.2-11.7,11.7c0,0,0,0,0,0v42.8L146.6,8.6l-0.1-0.1h-18.5v90.4h20V42.6
	L190,98.7l0.1,0.2h17.1V82.1C198.9,64.6,198.9,44.2,207.3,26.6L207.3,26.6z"/>
<path class="st0" d="M403.9,8.4h-22l-23.1,62.4L335.7,8.4h-22.5l1.3,3.2c9.8,11.2,15.5,25.4,16.1,40.2l19,47.7h17.9L403.6,9
	L403.9,8.4z"/>
<path class="st0" d="M440.4,7.8h-18.6l-38.4,90.5l-0.2,0.5h20.9l8.2-20.1h37.2l8.1,19.9l0.1,0.2H479L440.5,8L440.4,7.8z M419.6,60.6
	l11.3-27.7l11.3,27.7H419.6z"/>
<path class="st0" d="M461,16c0,6.4,5.2,11.6,11.6,11.6h15.5v71.5h20.4V27.7h27.2v-19H461V16z"/>
<path class="st0" d="M553.6,8.4h-8.9v90.4h20.4V20C565.2,13.6,560,8.5,553.6,8.4C553.6,8.4,553.6,8.4,553.6,8.4z"/>
<path class="st0" d="M625.2,6.9c-26.9,0-48,20.5-48,46.8v0.2c0,26.5,20.5,46.5,47.7,46.5c26.9,0,48-20.5,48-46.8v-0.3
	C672.9,26.9,652.4,6.9,625.2,6.9z M651.6,53.9c0,15.7-11.3,27.5-26.4,27.5c-15.2,0-26.7-11.9-26.7-27.8v-0.3
	c0-15.7,11.3-27.5,26.4-27.5c15.2,0,26.7,11.9,26.7,27.8V53.9z"/>
<path class="st0" d="M748.4,8.4h-9v54.4L698.7,8.6l-0.1-0.1H680v90.4h20V42.6l42.1,56.1l0.1,0.2h17.1V19.4
	C759.4,13.3,754.5,8.4,748.4,8.4z"/>
<path class="st0" d="M4.1,136.1L4.1,136.1c-0.1-7,5.4-12.7,12.3-12.8c0.2,0,0.4,0,0.6,0c3.6-0.2,7.2,1.2,9.7,3.8l-3.5,4
	c-1.7-1.7-3.9-2.7-6.3-2.8c-4.2,0-7.1,3.5-7.1,7.7v0c0,4.2,2.9,7.7,7.1,7.7c2.8,0,4.5-1.1,6.5-2.9l3.4,3.5
	c-2.5,2.9-6.2,4.6-10.1,4.4c-6.9,0.1-12.5-5.4-12.6-12.2C4.1,136.4,4.1,136.2,4.1,136.1z"/>
<path class="st0" d="M28.5,142.9L28.5,142.9c0-4.2,3.1-6.1,7.6-6.1c1.6,0,3.1,0.2,4.6,0.8v-0.3c0-2.2-1.4-3.4-4-3.4
	c-1.8,0-3.6,0.3-5.2,1l-1.3-4.1c2.3-1,4.8-1.6,7.3-1.5c2.9,0,5,0.8,6.4,2.1c1.4,1.7,2.2,3.8,2,6v10.9h-5.2v-2
	c-1.4,1.6-3.5,2.5-5.7,2.4C31.5,148.7,28.5,146.6,28.5,142.9z M40.8,141.7v-1c-1.1-0.5-2.2-0.7-3.4-0.7c-2.3,0-3.7,0.9-3.7,2.6v0.1
	c0,1.5,1.2,2.3,2.9,2.3C39.1,145,40.8,143.6,40.8,141.7z"/>
<path class="st0" d="M49.6,129.5H55v2.7c1.2-1.9,3.3-3,5.5-3c4,0,6.4,2.7,6.4,7v12.2h-5.4v-10.5c0-2.5-1.2-3.8-3.2-3.8
	c-2,0-3.3,1.3-3.3,3.8v10.5h-5.4V129.5z"/>
<path class="st0" d="M69.5,142.9L69.5,142.9c0-4.2,3.1-6.1,7.6-6.1c1.6,0,3.1,0.2,4.6,0.8v-0.3c0-2.2-1.4-3.4-4-3.4
	c-1.8,0-3.6,0.3-5.2,1l-1.3-4.1c2.3-1,4.8-1.6,7.3-1.5c2.9,0,5,0.8,6.4,2.1c1.4,1.7,2.2,3.8,2,6v10.9h-5.2v-2
	c-1.5,1.6-3.5,2.5-5.7,2.4C72.4,148.7,69.5,146.6,69.5,142.9z M81.8,141.7v-1c-1.1-0.5-2.2-0.7-3.4-0.7c-2.3,0-3.7,0.9-3.7,2.6v0.1
	c0,1.5,1.2,2.3,2.9,2.3C80.1,145,81.8,143.6,81.8,141.7z"/>
<path class="st0" d="M89.8,138.9L89.8,138.9c0-6.4,4.1-9.8,8.6-9.8c2.3,0,4.5,1,5.9,2.8v-9.3h5.4v25.7h-5.4v-2.7
	c-1.3,2-3.5,3.1-5.9,3.1C93.9,148.7,89.8,145.2,89.8,138.9z M104.3,138.9L104.3,138.9c0-3.2-2.1-5.3-4.6-5.3s-4.6,2-4.6,5.2v0.1
	c0,3.1,2.1,5.2,4.6,5.2C102.2,144.1,104.3,142.1,104.3,138.9z"/>
<path class="st0" d="M112.3,142.9L112.3,142.9c0-4.2,3.1-6.1,7.6-6.1c1.6,0,3.1,0.2,4.6,0.8v-0.3c0-2.2-1.4-3.4-4-3.4
	c-1.8,0-3.6,0.3-5.2,1l-1.3-4.1c2.3-1,4.8-1.6,7.3-1.5c2.9,0,5,0.8,6.4,2.1c1.4,1.7,2.2,3.8,2,6v10.9h-5.2v-2
	c-1.4,1.6-3.5,2.5-5.7,2.4C115.2,148.7,112.3,146.6,112.3,142.9z M124.6,141.7v-1c-1.1-0.5-2.2-0.7-3.4-0.7c-2.3,0-3.7,0.9-3.7,2.6
	v0.1c0,1.5,1.2,2.3,2.9,2.3C122.9,145,124.6,143.6,124.6,141.7z"/>
<path class="st0" d="M143.6,123.7h18.8v4.9h-13.3v5.2h11.8v4.9h-11.8v9.5h-5.4V123.7z"/>
<path class="st0" d="M163.8,139L163.8,139c0.2-5.7,5-10.1,10.6-9.9c5.3,0.2,9.5,4.4,9.8,9.7v0.1c-0.2,5.6-5,10-10.6,9.8
	C168.3,148.5,164.1,144.3,163.8,139z M178.9,139L178.9,139c0.1-2.8-2-5.2-4.8-5.3c-0.1,0-0.1,0-0.2,0c-2.7,0-4.9,2.1-4.9,4.7
	c0,0.1,0,0.3,0,0.4v0.1c-0.1,2.8,2,5.1,4.8,5.2c0.1,0,0.1,0,0.2,0c2.7,0,4.9-2.1,4.9-4.8C179,139.2,178.9,139.1,178.9,139z"/>
<path class="st0" d="M187.1,141.7v-12.2h5.3V140c0,2.5,1.2,3.8,3.2,3.8c2,0,3.4-1.3,3.4-3.8v-10.5h5.4v18.9H199v-2.7
	c-1.2,1.9-3.3,3-5.5,3C189.4,148.7,187.1,146,187.1,141.7z"/>
<path class="st0" d="M208.2,129.5h5.3v2.7c1.2-1.9,3.3-3,5.5-3c4,0,6.4,2.7,6.4,7v12.2h-5.3v-10.5c0-2.5-1.2-3.8-3.2-3.8
	c-2,0-3.3,1.3-3.3,3.8v10.5h-5.3V129.5z"/>
<path class="st0" d="M228.4,138.9L228.4,138.9c0-6.4,4.1-9.8,8.6-9.8c2.3,0,4.5,1,5.9,2.8v-9.3h5.3v25.7h-5.3v-2.7
	c-1.3,2-3.5,3.1-5.9,3.1C232.6,148.7,228.4,145.2,228.4,138.9z M243,138.9L243,138.9c0-3.2-2.1-5.3-4.6-5.3s-4.6,2-4.6,5.2v0.1
	c0,3.1,2.1,5.2,4.6,5.2C240.9,144.1,243,142.1,243,138.9L243,138.9z"/>
<path class="st0" d="M251,142.9L251,142.9c0-4.2,3.1-6.1,7.6-6.1c1.6,0,3.1,0.2,4.6,0.8v-0.3c0-2.2-1.4-3.4-4-3.4
	c-1.8,0-3.6,0.3-5.2,1l-1.3-4.1c2.3-1,4.8-1.6,7.3-1.5c2.9,0,5,0.8,6.4,2.1c1.4,1.7,2.2,3.8,2,6v10.9h-5.2v-2
	c-1.4,1.6-3.5,2.5-5.7,2.4C253.9,148.7,251,146.6,251,142.9z M263.3,141.7v-1c-1.1-0.5-2.2-0.7-3.4-0.7c-2.3,0-3.7,0.9-3.7,2.6v0.1
	c0,1.5,1.2,2.3,2.9,2.3C261.6,145,263.3,143.6,263.3,141.7L263.3,141.7z"/>
<path class="st0" d="M272.8,143v-8.9h-2.2v-4.6h2.2v-4.8h5.4v4.8h4.4v4.6h-4.4v8.1c0,1.2,0.5,1.8,1.7,1.8c0.9,0,1.8-0.2,2.6-0.7v4.3
	c-1.3,0.8-2.7,1.1-4.2,1.1C275,148.6,272.8,147.4,272.8,143z"/>
<path class="st0" d="M285.7,122.7h5.6v4.7h-5.6V122.7z M285.9,129.5h5.4v18.9h-5.4V129.5z"/>
<path class="st0" d="M294.5,139L294.5,139c0.2-5.7,5-10.1,10.6-9.9c5.3,0.2,9.5,4.4,9.8,9.7v0.1c0,5.5-4.5,9.9-10,9.8
	c-0.1,0-0.2,0-0.3,0c-5.4,0.2-9.9-4-10.2-9.4C294.5,139.2,294.5,139.1,294.5,139z M309.6,139L309.6,139c0.1-2.8-2-5.2-4.8-5.3
	c-0.1,0-0.1,0-0.2,0c-2.7,0-4.9,2.1-4.9,4.8c0,0.1,0,0.2,0,0.4v0.1c-0.1,2.8,2,5.1,4.8,5.2c0.1,0,0.1,0,0.2,0c2.7,0,4.9-2.1,4.9-4.8
	C309.6,139.3,309.6,139.1,309.6,139z"/>
<path class="st0" d="M317.8,129.5h5.4v2.7c1.2-1.9,3.3-3,5.5-3c4,0,6.4,2.7,6.4,7v12.2h-5.3v-10.5c0-2.5-1.2-3.8-3.2-3.8
	c-2,0-3.3,1.3-3.3,3.8v10.5h-5.4V129.5z"/>
<path class="st0" d="M5.5,169.4H3.3v-4.4h2.2v-1.2c-0.1-1.7,0.4-3.3,1.5-4.6c1.2-1.1,2.7-1.6,4.3-1.5c1.3,0,2.6,0.1,3.8,0.5v4.4
	c-0.8-0.3-1.6-0.5-2.4-0.5c-1.2,0-1.9,0.6-1.9,2v0.7h4.3v4.4h-4.2v14.3H5.5V169.4z"/>
<path class="st0" d="M15.9,174.4L15.9,174.4c0-5.5,4.5-9.9,10-9.9c0.1,0,0.2,0,0.3,0c5.4-0.2,10,4,10.2,9.4c0,0.1,0,0.2,0,0.3v0.1
	c0,5.5-4.5,9.9-10,9.8c-0.1,0-0.2,0-0.3,0c-5.4,0.2-10-4-10.2-9.4C15.9,174.6,15.9,174.5,15.9,174.4z M31,174.4L31,174.4
	c0.1-2.8-2-5.2-4.8-5.3c-0.1,0-0.1,0-0.2,0c-2.7,0-4.9,2.1-4.9,4.8c0,0.1,0,0.2,0,0.4v0.1c-0.1,2.8,2,5.1,4.8,5.2c0.1,0,0.1,0,0.2,0
	c2.7,0,4.9-2.1,4.9-4.8C31,174.7,31,174.5,31,174.4L31,174.4z"/>
<path class="st0" d="M39.3,164.9h5.3v3.8c1.1-2.6,2.9-4.3,6-4.1v5.6h-0.3c-3.6,0-5.7,2.2-5.7,6.7v7h-5.3V164.9z"/>
<path class="st0" d="M63.6,159.1H69v24.6h-5.4V159.1z"/>
<path class="st0" d="M73.7,164.9h5.3v2.7c1.2-1.9,3.3-3,5.5-3c4,0,6.4,2.7,6.4,7v12.2h-5.4v-10.5c0-2.5-1.2-3.8-3.2-3.8
	s-3.3,1.3-3.3,3.8v10.5h-5.3V164.9z"/>
<path class="st0" d="M94.7,164.9h5.3v2.7c1.2-1.9,3.3-3,5.5-3c4,0,6.4,2.7,6.4,7v12.2h-5.3v-10.5c0-2.5-1.2-3.8-3.2-3.8
	s-3.3,1.3-3.3,3.8v10.5h-5.3V164.9z"/>
<path class="st0" d="M114.9,174.4L114.9,174.4c0.2-5.7,5-10.1,10.6-9.9c5.3,0.2,9.5,4.4,9.8,9.7v0.1c-0.2,5.6-5,10-10.6,9.8
	C119.4,183.9,115.1,179.7,114.9,174.4z M130,174.4L130,174.4c0.1-2.8-2-5.2-4.8-5.3c-0.1,0-0.1,0-0.2,0c-2.7,0-4.9,2.1-4.9,4.8
	c0,0.1,0,0.2,0,0.4v0.1c-0.1,2.8,2,5.1,4.8,5.2c0.1,0,0.1,0,0.2,0c2.7,0,4.9-2.1,4.9-4.7C130,174.7,130,174.5,130,174.4L130,174.4z"
	/>
<path class="st0" d="M135.5,164.9h5.7l4.2,12.6l4.3-12.6h5.6l-7.4,19h-4.9L135.5,164.9z"/>
<path class="st0" d="M155.4,178.3L155.4,178.3c0-4.2,3.1-6.1,7.6-6.1c1.6,0,3.1,0.3,4.6,0.8v-0.3c0-2.2-1.4-3.5-4-3.5
	c-1.8,0-3.5,0.3-5.2,1l-1.4-4.1c2.3-1,4.8-1.6,7.3-1.5c2.9,0,5,0.8,6.4,2.1c1.4,1.7,2.2,3.8,2,6v10.9h-5.2v-2
	c-1.4,1.6-3.5,2.5-5.7,2.4C158.3,184.1,155.4,182.1,155.4,178.3z M167.7,177.1v-1c-1.1-0.5-2.2-0.7-3.4-0.7c-2.3,0-3.7,0.9-3.7,2.6
	v0.1c0,1.4,1.2,2.3,2.9,2.3C166,180.4,167.7,179,167.7,177.1L167.7,177.1z"/>
<path class="st0" d="M177.2,178.4v-8.9h-2.2v-4.6h2.2v-4.8h5.4v4.8h4.5v4.6h-4.4v8.1c0,1.2,0.5,1.8,1.7,1.8c0.9,0,1.8-0.2,2.6-0.7
	v4.3c-1.3,0.8-2.7,1.1-4.2,1.1C179.4,184.1,177.2,182.8,177.2,178.4z"/>
<path class="st0" d="M190.1,158.1h5.6v4.7h-5.6V158.1z M190.3,164.9h5.3v18.9h-5.3V164.9z"/>
<path class="st0" d="M198.9,174.4L198.9,174.4c0.2-5.7,5-10.1,10.6-9.9c5.3,0.2,9.5,4.4,9.8,9.7v0.1c-0.2,5.6-5,10-10.6,9.8
	C203.3,183.9,199.1,179.7,198.9,174.4z M214,174.4L214,174.4c0.1-2.8-2-5.2-4.8-5.3c-0.1,0-0.1,0-0.2,0c-2.7,0-4.9,2.1-4.9,4.8
	c0,0.1,0,0.2,0,0.4v0.1c-0.1,2.8,2,5.1,4.8,5.2c0.1,0,0.1,0,0.2,0c2.7,0,4.9-2.1,4.9-4.8C214,174.7,214,174.5,214,174.4L214,174.4z"
	/>
<path class="st0" d="M222.2,164.9h5.3v2.7c1.2-1.9,3.3-3,5.5-3c4,0,6.4,2.7,6.4,7v12.2h-5.3v-10.5c0-2.5-1.2-3.8-3.2-3.8
	c-2,0-3.3,1.3-3.3,3.8v10.5h-5.3V164.9z"/>
<path class="st0" d="M384.4,122.8h18.8v4.9h-13.3v5.2h11.8v4.9h-11.8v9.5h-5.4V122.8z"/>
<path class="st0" d="M404.5,138.1L404.5,138.1c0-5.5,4.5-9.9,10-9.9c0.1,0,0.2,0,0.3,0c5.4-0.2,10,4,10.2,9.4c0,0.1,0,0.2,0,0.4v0.1
	c-0.2,5.6-5,10-10.6,9.8C409.1,147.6,404.9,143.4,404.5,138.1L404.5,138.1z M419.7,138.1L419.7,138.1c0.1-2.8-2-5.1-4.8-5.2
	c-0.1,0-0.1,0-0.2,0c-2.7,0-4.9,2.1-4.9,4.8c0,0.1,0,0.2,0,0.4v0.1c-0.1,2.8,2,5.1,4.8,5.2c0.1,0,0.1,0,0.2,0c2.7,0,4.9-2.1,4.9-4.8
	C419.7,138.3,419.7,138.2,419.7,138.1z"/>
<path class="st0" d="M427.9,128.5h5.4v2.7c1.2-1.9,3.3-3,5.5-3c4,0,6.4,2.7,6.4,7v12.2h-5.4v-10.5c0-2.5-1.2-3.8-3.2-3.8
	s-3.3,1.3-3.3,3.8v10.5h-5.4V128.5z"/>
<path class="st0" d="M448.1,138L448.1,138c0-6.4,4.1-9.8,8.6-9.8c2.3,0,4.5,1,5.9,2.8v-9.3h5.3v25.7h-5.3v-2.7
	c-1.3,2-3.5,3.1-5.9,3.1C452.3,147.7,448.1,144.3,448.1,138z M462.7,138L462.7,138c0-3.2-2.1-5.3-4.6-5.3s-4.6,2-4.6,5.2v0.1
	c0,3.1,2.1,5.2,4.6,5.2C460.6,143.2,462.7,141.1,462.7,138z"/>
<path class="st0" d="M470.7,142L470.7,142c0-4.2,3.1-6.1,7.6-6.1c1.6,0,3.1,0.2,4.6,0.8v-0.3c0-2.2-1.4-3.4-4-3.4
	c-1.8,0-3.6,0.3-5.2,1l-1.3-4.1c2.3-1,4.8-1.6,7.3-1.5c2.9,0,5,0.8,6.4,2.1c1.4,1.7,2.2,3.8,2,6v10.9h-5.2v-2
	c-1.4,1.6-3.5,2.5-5.7,2.4C473.6,147.7,470.7,145.7,470.7,142z M483,140.7v-0.9c-1.1-0.5-2.2-0.7-3.4-0.7c-2.3,0-3.7,0.9-3.7,2.6
	v0.1c0,1.4,1.2,2.3,2.9,2.3C481.3,144,483,142.7,483,140.7z"/>
<path class="st0" d="M492.5,142v-8.9h-2.2v-4.6h2.2v-4.8h5.3v4.8h4.4v4.6h-4.4v8.1c0,1.2,0.5,1.8,1.7,1.8c0.9,0,1.8-0.2,2.6-0.7v4.3
	c-1.3,0.8-2.7,1.1-4.2,1.1C494.7,147.7,492.5,146.4,492.5,142z"/>
<path class="st0" d="M505.4,121.7h5.6v4.7h-5.6V121.7z M505.6,128.5h5.4v18.8h-5.4V128.5z"/>
<path class="st0" d="M514.2,138.1L514.2,138.1c0.2-5.7,5-10.1,10.6-9.8c5.3,0.2,9.5,4.4,9.8,9.7v0.1c0,5.5-4.5,9.9-10,9.8
	c-0.1,0-0.2,0-0.3,0c-5.4,0.2-10-4-10.2-9.4C514.2,138.3,514.2,138.2,514.2,138.1z M529.3,138.1L529.3,138.1c0.1-2.8-2-5.1-4.8-5.2
	c-0.1,0-0.1,0-0.2,0c-2.7,0-4.9,2.1-4.9,4.8c0,0.1,0,0.2,0,0.4v0.1c-0.1,2.8,2,5.1,4.8,5.2c0.1,0,0.1,0,0.2,0c2.7,0,4.9-2.1,4.9-4.8
	C529.3,138.3,529.3,138.2,529.3,138.1z"/>
<path class="st0" d="M537.5,128.5h5.3v2.7c1.2-1.9,3.3-3,5.5-3c4,0,6.4,2.7,6.4,7v12.2h-5.3v-10.5c0-2.5-1.2-3.8-3.2-3.8
	c-2,0-3.3,1.3-3.3,3.8v10.5h-5.3V128.5z"/>
<path class="st0" d="M567.3,138.1L567.3,138.1c-0.1-5.4,4.2-9.8,9.5-9.9c0.1,0,0.2,0,0.3,0c2.9-0.2,5.6,1,7.5,3.2l-3.3,3.5
	c-1-1.3-2.6-2.1-4.3-2.1c-2.7,0-4.6,2.3-4.6,5.1v0.1c0,2.9,1.9,5.2,4.8,5.2c1.7,0,3.2-0.8,4.3-2l3.1,3.2c-1.9,2.3-4.7,3.6-7.7,3.4
	c-5.3,0.1-9.7-4.1-9.8-9.4C567.3,138.3,567.3,138.2,567.3,138.1z"/>
<path class="st0" d="M586.3,142L586.3,142c0-4.2,3.1-6.1,7.6-6.1c1.6,0,3.1,0.2,4.6,0.8v-0.3c0-2.2-1.4-3.4-4-3.4
	c-1.8,0-3.6,0.3-5.2,1l-1.3-4.1c2.3-1,4.8-1.6,7.3-1.5c2.9,0,5,0.8,6.4,2.1c1.4,1.7,2.2,3.8,2,6v10.9h-5.2v-2
	c-1.4,1.6-3.5,2.5-5.7,2.4C589.2,147.7,586.3,145.7,586.3,142z M598.6,140.8v-0.9c-1.1-0.5-2.2-0.7-3.4-0.7c-2.3,0-3.7,0.9-3.7,2.6
	v0.1c0,1.4,1.2,2.3,2.9,2.3C596.9,144,598.6,142.7,598.6,140.8L598.6,140.8z"/>
<path class="st0" d="M607.4,128.5h5.3v2.7c1.2-1.9,3.3-3,5.5-3c4,0,6.4,2.7,6.4,7v12.2h-5.3v-10.5c0-2.5-1.2-3.8-3.2-3.8
	c-2,0-3.3,1.3-3.3,3.8v10.5h-5.3V128.5z"/>
<path class="st0" d="M627.3,142L627.3,142c0-4.2,3.1-6.1,7.6-6.1c1.6,0,3.1,0.2,4.6,0.8v-0.3c0-2.2-1.4-3.4-4-3.4
	c-1.8,0-3.5,0.3-5.2,1l-1.3-4.1c2.3-1,4.8-1.6,7.3-1.5c2.9,0,5,0.8,6.4,2.1c1.4,1.7,2.2,3.8,2,6v10.9h-5.2v-2
	c-1.4,1.6-3.5,2.5-5.7,2.4C630.2,147.7,627.3,145.7,627.3,142z M639.6,140.8v-0.9c-1.1-0.5-2.2-0.7-3.4-0.7c-2.3,0-3.7,0.9-3.7,2.6
	v0.1c0,1.4,1.2,2.3,2.9,2.3C637.9,144,639.6,142.7,639.6,140.8L639.6,140.8z"/>
<path class="st0" d="M647.5,138L647.5,138c0-6.4,4.1-9.8,8.6-9.8c2.3-0.1,4.5,1,5.9,2.8v-9.3h5.3v25.7H662v-2.7
	c-1.3,2-3.5,3.1-5.9,3.1C651.7,147.7,647.5,144.3,647.5,138z M662,138L662,138c0-3.2-2.1-5.3-4.6-5.3s-4.6,2-4.6,5.2v0.1
	c0,3.1,2.1,5.2,4.6,5.2S662,141.1,662,138z"/>
<path class="st0" d="M671.3,121.7h5.7v4.7h-5.6L671.3,121.7z M671.5,128.5h5.3v18.8h-5.3V128.5z"/>
<path class="st0" d="M680,138.1L680,138.1c0-5.4,3.8-9.9,9.3-9.9c6.3,0,9.2,4.9,9.2,10.2c0,0.4,0,0.9-0.1,1.4h-13.1
	c0.4,2.2,2.4,3.8,4.6,3.7c1.7,0,3.4-0.7,4.6-1.9l3.1,2.7c-3.6,4.2-9.9,4.6-14.1,1C681.4,143.5,680.2,140.8,680,138.1L680,138.1z
	 M693.3,136.5c-0.3-2.4-1.7-4-4-4c-2.3,0-3.7,1.6-4.1,4H693.3z"/>
<path class="st0" d="M701.6,128.5h5.4v2.7c1.2-1.9,3.3-3,5.5-3c4,0,6.4,2.7,6.4,7v12.2h-5.3v-10.5c0-2.5-1.2-3.8-3.2-3.8
	c-2,0-3.3,1.3-3.3,3.8v10.5h-5.3L701.6,128.5z"/>
<path class="st0" d="M722.7,128.5h5.3v2.7c1.2-1.9,3.3-3,5.5-3c4,0,6.4,2.7,6.4,7v12.2h-5.3v-10.5c0-2.5-1.2-3.8-3.2-3.8
	s-3.3,1.3-3.3,3.8v10.5h-5.3V128.5z"/>
<path class="st0" d="M742.8,138.1L742.8,138.1c0-5.4,3.8-9.9,9.3-9.9c6.3,0,9.2,4.9,9.2,10.2c0,0.4,0,0.9-0.1,1.4h-13.1
	c0.3,2.2,2.3,3.8,4.6,3.7c1.7,0,3.4-0.7,4.6-1.9l3.1,2.7c-3.6,4.2-9.9,4.6-14.1,1C744.1,143.5,742.9,140.9,742.8,138.1L742.8,138.1z
	 M756.1,136.5c-0.3-2.4-1.7-4-4-4c-2.3,0-3.7,1.6-4.1,4H756.1z"/>
<path class="st0" d="M383.8,163.9h5.4v2.7c1.3-2,3.5-3.1,5.9-3.1c4.4,0,8.6,3.4,8.6,9.7v0.1c0,6.3-4.1,9.8-8.6,9.8
	c-2.3,0-4.5-1-5.9-2.8v8.1h-5.4V163.9z M398.3,173.4L398.3,173.4c0-3.2-2.1-5.3-4.6-5.3s-4.6,2.1-4.6,5.2v0.1c0,3.1,2.1,5.2,4.6,5.2
	S398.3,176.6,398.3,173.4L398.3,173.4z"/>
<path class="st0" d="M405.8,173.4L405.8,173.4c0.2-5.7,5-10.1,10.6-9.9c5.3,0.2,9.5,4.4,9.8,9.7v0.1c0,5.5-4.5,9.9-10,9.8
	c-0.1,0-0.2,0-0.3,0c-5.4,0.2-10-4-10.2-9.4C405.8,173.7,405.8,173.6,405.8,173.4z M420.9,173.4L420.9,173.4c0.1-2.8-2-5.2-4.8-5.3
	c-0.1,0-0.1,0-0.2,0c-2.7,0-4.9,2.1-4.9,4.8c0,0.1,0,0.2,0,0.4v0.1c-0.1,2.8,2,5.1,4.8,5.2c0.1,0,0.1,0,0.2,0c2.7,0,4.9-2.1,4.9-4.8
	C420.9,173.7,420.9,173.6,420.9,173.4z"/>
<path class="st0" d="M429,176.1v-12.2h5.3v10.5c0,2.5,1.2,3.8,3.2,3.8c2,0,3.3-1.3,3.3-3.8v-10.5h5.3v18.9h-5.3v-2.7
	c-1.2,1.9-3.3,3-5.5,3C431.4,183.1,429,180.4,429,176.1z"/>
<path class="st0" d="M450.2,163.9h5.3v3.8c1.1-2.6,2.8-4.3,6-4.1v5.6h-0.3c-3.5,0-5.7,2.1-5.7,6.6v7h-5.4L450.2,163.9z"/>
<path class="st0" d="M473.9,157.1h5.4v25.7h-5.4V157.1z"/>
<path class="st0" d="M482.1,167.3c2.4-0.2,3.6-1.5,3.4-3.5h-2.2v-5.6h5.7v4.8c0,4.6-2.3,6.5-6.5,6.6L482.1,167.3z"/>
<path class="st0" d="M492.7,157.1h5.6v4.8h-5.6V157.1z M492.8,163.9h5.4v18.9h-5.4V163.9z"/>
<path class="st0" d="M502.3,163.9h5.3v2.7c1.2-1.9,3.3-3,5.5-3c4,0,6.4,2.7,6.4,7v12.2h-5.3v-10.5c0-2.5-1.2-3.8-3.2-3.8
	c-2,0-3.4,1.3-3.4,3.8v10.5h-5.3V163.9z"/>
<path class="st0" d="M523.4,163.9h5.4v2.7c1.2-1.9,3.3-3,5.5-3c4,0,6.4,2.7,6.4,7v12.2h-5.3v-10.5c0-2.5-1.2-3.8-3.2-3.8
	c-2,0-3.3,1.3-3.3,3.8v10.5h-5.4V163.9z"/>
<path class="st0" d="M543.5,173.4L543.5,173.4c0.2-5.7,5-10.1,10.6-9.9c5.3,0.2,9.5,4.4,9.8,9.7v0.1c0,5.5-4.5,9.9-10,9.8
	c-0.1,0-0.2,0-0.3,0c-5.4,0.2-10-4-10.2-9.4C543.5,173.7,543.5,173.6,543.5,173.4z M558.6,173.4L558.6,173.4c0.1-2.8-2-5.2-4.8-5.3
	c-0.1,0-0.1,0-0.2,0c-2.7,0-4.9,2.1-4.9,4.8c0,0.1,0,0.2,0,0.4v0.1c-0.1,2.8,2,5.1,4.8,5.2c0.1,0,0.1,0,0.2,0c2.7,0,4.9-2.1,4.9-4.8
	C558.6,173.7,558.6,173.6,558.6,173.4z"/>
<path class="st0" d="M564.1,163.9h5.7l4.2,12.6l4.2-12.6h5.6l-7.4,19h-4.9L564.1,163.9z"/>
<path class="st0" d="M584,177.4L584,177.4c0-4.2,3.1-6.1,7.6-6.1c1.6,0,3.1,0.3,4.6,0.8v-0.3c0-2.2-1.4-3.4-4-3.4
	c-1.8,0-3.5,0.3-5.2,1l-1.3-4.1c2.3-1,4.8-1.6,7.3-1.5c2.9,0,5,0.8,6.4,2.1c1.4,1.7,2.2,3.8,2,6v10.9h-5.1v-2
	c-1.4,1.6-3.5,2.5-5.7,2.4C587,183.1,584,181.1,584,177.4z M596.3,176.1v-1c-1.1-0.5-2.2-0.7-3.4-0.7c-2.3,0-3.7,0.9-3.7,2.6v0.1
	c0,1.4,1.2,2.3,2.9,2.3C594.6,179.4,596.3,178.1,596.3,176.1L596.3,176.1z"/>
<path class="st0" d="M605.8,177.4v-8.9h-2.2v-4.6h2.2v-4.8h5.4v4.8h4.4v4.6h-4.4v8.1c0,1.2,0.5,1.8,1.7,1.8c0.9,0,1.8-0.2,2.6-0.7
	v4.3c-1.3,0.8-2.7,1.1-4.2,1.1C608,183.1,605.8,181.8,605.8,177.4z"/>
<path class="st0" d="M618.8,157.1h5.6v4.8h-5.6V157.1z M618.9,163.9h5.3v18.9h-5.3V163.9z"/>
<path class="st0" d="M627.5,173.4L627.5,173.4c0.2-5.7,5-10.1,10.6-9.9c5.3,0.2,9.5,4.4,9.8,9.7v0.1c0,5.5-4.5,9.9-10,9.8
	c-0.1,0-0.2,0-0.3,0c-5.4,0.2-10-4-10.2-9.4C627.5,173.7,627.5,173.6,627.5,173.4z M642.6,173.4L642.6,173.4c0.1-2.8-2-5.2-4.8-5.3
	c-0.1,0-0.1,0-0.2,0c-2.7,0-4.9,2.1-4.9,4.8c0,0.1,0,0.2,0,0.4v0.1c-0.1,2.8,2,5.1,4.8,5.2c0.1,0,0.1,0,0.2,0c2.7,0,4.9-2.1,4.9-4.8
	C642.6,173.7,642.6,173.6,642.6,173.4L642.6,173.4z"/>
<path class="st0" d="M650.9,163.9h5.3v2.7c1.2-1.9,3.3-3,5.5-3c4,0,6.4,2.7,6.4,7v12.2h-5.3v-10.5c0-2.5-1.2-3.8-3.2-3.8
	c-2,0-3.3,1.3-3.3,3.8v10.5h-5.3V163.9z"/>
<path class="st0" d="M262,23c-0.3,0.2-0.6,0.3-1,0.5c3.9,0.3,7.7,0.9,11.4,2c14.3,4.6,22.7,19.9,23.4,33.5c1,20.2-13.8,37-35.6,37.5
	c-12.3,0.4-24.2-4.6-32.6-13.6c-7.2-7.9-11.6-17.2-13.3-28.6c-0.1-0.3-0.4-0.5-0.7-0.5c-0.3,0-0.6,0.3-0.6,0.6
	c-0.1,2.5,0.1,5,0.5,7.4c3.1,17.8,15.7,32.8,33.7,39.9s34.7,4.3,50.2-6.2c24.7-16.7,23.7-54-2.6-69.3C286,21.1,271.6,18.4,262,23z"
	/>
<path class="st0" d="M270.9,84.3c0.3-0.2,0.6-0.3,1-0.5c-3.9-0.2-7.7-0.7-11.5-1.7c-14.4-4.2-23.2-19.3-24.2-32.9
	c-1.4-20.3,13-37.4,34.8-38.4c12.3-0.7,24.3,4,32.9,12.8c7.4,7.7,12,17,14,28.3c0.1,0.3,0.4,0.5,0.7,0.5c0.3,0,0.6-0.3,0.6-0.6
	c0-2.5-0.2-5-0.6-7.4c-3.6-17.8-16.5-32.4-34.7-39.1s-34.8-3.5-50.1,7.3c-24.3,17.2-22.4,54.5,4.3,69.2
	C247,86.7,261.4,89.2,270.9,84.3z"/>
</svg>
