<?xml version="1.0" encoding="utf-8"?>
<!-- Generator: Adobe Illustrator 13.0.2, SVG Export Plug-In . SVG Version: 6.00 Build 14948)  -->
<!DOCTYPE svg PUBLIC "-//W3C//DTD SVG 1.1//EN" "http://www.w3.org/Graphics/SVG/1.1/DTD/svg11.dtd">
<svg version="1.1" id="Layer_1" xmlns="http://www.w3.org/2000/svg" xmlns:xlink="http://www.w3.org/1999/xlink" x="0px" y="0px"
	 width="295.368px" height="44.879px" viewBox="0 0 295.368 44.879" enable-background="new 0 0 295.368 44.879"
	 xml:space="preserve">
<g>
	<path d="M97.739,16.979c0.01-1.56-0.432-6.3-5.891-6.3c-6.181,0-9.12,6-10.042,11.76c-0.922,5.76,0.098,11.76,6.278,11.76
		c4.439,0,6.679-3.121,8.102-7.141h12.96c-1.383,8.641-9.871,17.82-22.411,17.82c-13.859,0-20.154-9.781-18.128-22.439
		C70.767,8.939,80.716,0,93.916,0c11.75,0.061,17.241,6.24,16.662,16.979H97.739z"/>
	<path d="M172.239,16.979c0.01-1.56-0.432-6.3-5.891-6.3c-6.182,0-9.121,6-10.042,11.76c-0.922,5.76,0.098,11.76,6.278,11.76
		c4.439,0,6.679-3.121,8.102-7.141h12.96c-1.383,8.641-9.871,17.82-22.411,17.82c-13.859,0-20.154-9.781-18.128-22.439
		C145.267,8.939,155.216,0,168.416,0c11.751,0.061,17.241,6.24,16.662,16.979H172.239z"/>
	<path d="M282.488,16.979c0.01-1.56-0.432-6.3-5.891-6.3c-6.182,0-9.121,6-10.042,11.76c-0.922,5.76,0.098,11.76,6.278,11.76
		c4.439,0,6.679-3.121,8.102-7.141h12.96c-1.383,8.641-9.871,17.82-22.411,17.82c-13.859,0-20.154-9.781-18.128-22.439
		C255.515,8.939,265.465,0,278.665,0c11.751,0.061,17.241,6.24,16.662,16.979H282.488z"/>
	<g>
		<path d="M123.108,19.961h8.528l-1.074,6.59h-8.528L123.108,19.961z"/>
	</g>
	<path d="M69.744,13.26c1.296-8.1-4.521-12.239-12.021-12.239H32.584L30.952,11.22h19.379c5.04,0,6.291,1.56,5.858,4.261
		c-0.614,3.84-4.042,4.259-6.502,4.259H29.589l-0.599,3.74L20.354,1.021h-13.5L0,43.857h12.479l3.744-23.398h0.12l9.389,23.381
		l-0.003,0.018h0.01h12.84h0.35l2.391-14.938h7.02c5.22,0,4.898,4.258,4.606,8.338c-0.175,2.221-0.291,4.439,0.024,6.6h13.199
		c-0.883-1.979-0.127-7.078,0.028-9.178c0.375-5.342-1.211-9.301-4.591-10.68C66.245,22.379,69.033,17.699,69.744,13.26z"/>
	<path d="M253.746,13.26c1.295-8.1-4.521-12.239-12.021-12.239h-25.139l-1.633,10.199h19.379c5.041,0,6.291,1.56,5.859,4.261
		c-0.615,3.84-4.043,4.259-6.502,4.259h-20.1l-0.598,3.74l-8.637-22.459h-13.5l-6.854,42.837h12.479l3.744-23.398h0.121
		l9.389,23.381l-0.004,0.018h0.01h12.84h0.35l2.391-14.938h7.02c5.221,0,4.898,4.258,4.606,8.338c-0.175,2.221-0.29,4.439,0.024,6.6
		h13.199c-0.884-1.979-0.127-7.078,0.027-9.178c0.375-5.342-1.211-9.301-4.59-10.68C250.246,22.379,253.035,17.699,253.746,13.26z"
		/>
</g>
</svg>
