<?xml version="1.0" encoding="utf-8"?>
<!-- Generator: Adobe Illustrator 21.0.0, SVG Export Plug-In . SVG Version: 6.00 Build 0)  -->
<svg version="1.1" xmlns="http://www.w3.org/2000/svg" xmlns:xlink="http://www.w3.org/1999/xlink" x="0px" y="0px"
	 viewBox="0 0 288.1 101.1" style="enable-background:new 0 0 288.1 101.1;" xml:space="preserve">
<style type="text/css">
	.st0{fill:#FFFFFF;}
	.st1{fill:none;stroke:#FFFFFF;stroke-width:1.85;stroke-miterlimit:10;}
	.st2{fill:none;stroke:#FFFFFF;stroke-width:1.8504;stroke-miterlimit:10;}
	.st3{fill:none;stroke:#FFFFFF;stroke-width:1.2;stroke-miterlimit:10;}
	.st4{fill:#92002C;}
	.st5{fill:#D00050;}
	.st6{fill:#004185;}
	.st7{fill:#00958A;}
	.st8{fill:#00AEEF;}
	.st9{fill:#00E5FE;}
	.st10{fill:#0071C5;}
	.st11{fill:#B18C62;}
	.st12{fill:#E7CB9E;}
	.st13{fill:#00D3C9;}
	.st14{fill:#490016;}
	.st15{fill:#680028;}
</style>
<g id="Layer_1">
	<g id="Capa_1">
	</g>
	<g>
		<path class="st0" d="M131.1,46.7c-1.9,1-3.4,1.3-5,1.3c-5,0-7.4-3.2-7.4-6.5c0-3.2,2.5-6.6,7.7-6.6c2.3,0,3.9,0.7,4.6,1.1v2.9
			c-0.5-0.4-2.2-1.4-4.4-1.4c-2.7,0-4.6,1.5-4.6,3.9c0,2.5,2.1,3.9,4.5,3.9c1.2,0,2.3-0.3,3.4-0.9l1.2-0.7V46.7z"/>
		<path class="st0" d="M140.1,47.9c-4.4,0-7.3-3.2-7.3-6.5c0-3,2.5-6.6,7.3-6.6c4.5,0,7.3,3.2,7.3,6.6
			C147.5,44.4,145.1,47.9,140.1,47.9z M140.1,37.6c-2.3,0-4,1.4-4,3.9c0,3.1,2.5,3.9,4,3.9c2,0,4-1.3,4-3.9
			C144.2,39.1,142.6,37.6,140.1,37.6z"/>
		<path class="st0" d="M162.4,47.8h-2.7l-7.1-7.9v7.9h-3.2V35h2.9l6.8,7.5V35h3.1V47.8z"/>
		<path class="st0" d="M177,46.7c-1.9,1-3.4,1.3-5,1.3c-5,0-7.4-3.2-7.4-6.5c0-3.2,2.5-6.6,7.7-6.6c2.3,0,3.9,0.7,4.6,1.1v2.9
			c-0.5-0.4-2.2-1.4-4.4-1.4c-2.7,0-4.6,1.5-4.6,3.9c0,2.5,2.1,3.9,4.5,3.9c1.2,0,2.3-0.3,3.4-0.9l1.2-0.7V46.7z"/>
		<path class="st0" d="M186,47.9c-4.4,0-7.3-3.2-7.3-6.5c0-3,2.5-6.6,7.3-6.6c4.5,0,7.3,3.2,7.3,6.6C193.4,44.4,191,47.9,186,47.9z
			 M186.1,37.6c-2.3,0-4,1.4-4,3.9c0,3.1,2.5,3.9,4,3.9c2,0,4-1.3,4-3.9C190.1,39.1,188.6,37.6,186.1,37.6z"/>
		<path class="st0" d="M200.4,35c1.2,0,2.3,0,3.4,0.6c0.7,0.4,1.7,1.5,1.7,3c0,2.1-1.6,2.9-2.2,3.1c0.9,0.4,1.6,1.7,1.8,2.4
			c0.4,0.7,0.9,1.9,1.2,2.7l0.4,0.9h-3.5c-0.3-0.6-1.4-3.1-1.6-3.6c-0.9-1.6-1.5-1.6-2.4-1.6h-0.5v5.2h-3.2V35H200.4z M198.7,37.3
			v2.9h1.3c0.8,0,1,0,1.4-0.2c0.5-0.2,0.7-0.7,0.7-1.2c0-1.5-1.4-1.5-1.8-1.5H198.7z"/>
		<path class="st0" d="M213.4,35c0.8,0,2,0,3.5,0.5c1,0.4,4.1,1.9,4.1,5.9c0,1.3-0.3,3.9-3.1,5.4c-1.2,0.7-2.5,1-4.7,1h-5V35H213.4z
			 M211.4,37.4v7.9h1.3c1.8,0,2.3-0.2,2.8-0.4c1.3-0.6,2.1-1.8,2.1-3.6c0-1.4-0.5-2.9-2.2-3.6c-0.8-0.3-1.6-0.3-2.5-0.3H211.4z"/>
		<path class="st0" d="M226.4,47.8h-3.2V35h3.2V47.8z"/>
		<path class="st0" d="M242.4,47.8H239l-1-2.5h-5.7l-1,2.5h-3.4L233,35h3.7L242.4,47.8z M234.9,38.1l-1.9,4.9h3.9L234.9,38.1z"/>
		<path class="st0" d="M130.6,67.1c-1,0.4-2.5,1-4.7,1c-4.9,0-7-3.5-7-6.4c0-3.4,2.5-6.7,6.9-6.7c1.8,0,3.1,0.5,4.5,1.1V58
			c-2.1-1.2-3.8-1.3-4.5-1.3c-2.5,0-5,1.9-5,4.9c0,2.8,2,4.9,5.1,4.9c0.9,0,1.6-0.2,2.8-0.6v-2.7h-2.5v-1.6h4.3V67.1z"/>
		<path class="st0" d="M140.5,56.8h-5.4v3.9h5.2v1.6h-5.2v4h5.6v1.6h-7.4V55.2h7.2V56.8z"/>
		<path class="st0" d="M154.9,67.9h-1.6l-8.5-9.8v9.8H143V55.2h1.5l8.6,9.9v-9.9h1.7V67.9z"/>
		<path class="st0" d="M170.8,61.5c0,3.7-2.8,6.6-7,6.6c-4,0-6.7-3-6.7-6.5c0-3.4,2.5-6.6,6.8-6.6C168.1,55,170.8,58.1,170.8,61.5z
			 M158.9,61.6c0,2.9,2.3,4.8,5,4.8c1.4,0,2.8-0.6,3.7-1.5c0.8-0.9,1.3-2.3,1.3-3.4c0-2.1-1.6-4.8-4.9-4.8
			C160.4,56.7,158.9,59.5,158.9,61.6z"/>
		<path class="st0" d="M184.9,67.9H183V58l-3.9,4.9h-0.3l-4-4.9v9.9H173V55.2h1.7l4.3,5.2l4.2-5.2h1.7V67.9z"/>
		<path class="st0" d="M194.9,56.8h-5.4v3.9h5.2v1.6h-5.2v4h5.6v1.6h-7.4V55.2h7.2V56.8z"/>
		<path class="st0" d="M209.4,56.8h-5v3.5h5V62h-5v5.9h-1.8V55.2h6.8V56.8z"/>
		<path class="st0" d="M224.5,61.5c0,3.7-2.8,6.6-7,6.6c-4,0-6.7-3-6.7-6.5c0-3.4,2.5-6.6,6.8-6.6C221.9,55,224.5,58.1,224.5,61.5z
			 M212.7,61.6c0,2.9,2.3,4.8,5,4.8c1.4,0,2.8-0.6,3.7-1.5c0.8-0.9,1.3-2.3,1.3-3.4c0-2.1-1.6-4.8-4.9-4.8
			C214.2,56.7,212.7,59.5,212.7,61.6z"/>
		<path class="st0" d="M237.5,62.4c0,1.2,0,3-1.4,4.3c-1.1,1-2.6,1.4-4,1.4c-1.8,0-3.8-0.6-4.8-2.2c-0.7-1.1-0.7-2.6-0.7-3.5v-7.2
			h1.8v7.2c0,1.7,0.2,2.3,0.8,3c0.5,0.6,1.4,1.1,2.9,1.1c2.1,0,3-1.1,3.3-1.7c0.2-0.4,0.4-1.1,0.4-2.4v-7.2h1.8V62.4z"/>
		<path class="st0" d="M251.9,67.9h-1.6l-8.5-9.8v9.8h-1.7V55.2h1.5l8.6,9.9v-9.9h1.7V67.9z"/>
		<path class="st0" d="M259,55.2c1.2,0,3.3,0,5,1.3c1.4,1.1,2.5,2.9,2.5,5.1c0,3.2-2.3,4.9-3.1,5.4c-1.6,1-3.3,1-4.6,1h-4V55.2H259z
			 M256.5,56.8v9.5h2.4c1,0,2.5-0.1,3.5-0.7c1.3-0.8,2.1-2.4,2.1-4.1c0-1.6-0.7-3.3-2.7-4.2c-1-0.5-1.9-0.5-3.1-0.5H256.5z"/>
		<path class="st0" d="M272,55.2c0.6,0,1.4,0.1,2.2,0.4c1.4,0.6,2,1.9,2,3.1c0,1.5-0.7,2.6-2.1,3.1c1.2,0.8,1.9,1.9,2.8,3.5
			c0.5,0.9,0.9,1.3,1.7,2.5h-2.2c-0.4-0.6-2.2-3.4-2.6-4c-1.3-1.6-1.9-1.6-2.8-1.6h-0.5v5.6h-1.8V55.2H272z M270.6,56.7v4h0.7
			c0.3,0,1.3,0,1.8-0.2c0.9-0.3,1.2-1.1,1.2-1.8c0-0.7-0.4-1.4-1-1.7c-0.5-0.2-1.1-0.3-2.2-0.3H270.6z"/>
		<path class="st0" d="M283.3,61.2v6.8h-1.9v-6.8l-4.7-6h2.2l3.4,4.4l3.5-4.4h2.2L283.3,61.2z"/>
	</g>
	<g>
		<g>
			<line x1="107.9" y1="0.9" x2="8.7" y2="100.1"/>
			<g>
				<line class="st1" x1="106.1" y1="2.7" x2="10.8" y2="98"/>
				<g>
					<g>
						<ellipse transform="matrix(0.7071 -0.7071 0.7071 0.7071 29.035 75.7634)" class="st0" cx="106" cy="2.8" rx="2.4" ry="2.4"/>
						<path class="st0" d="M104,0.9c-1.1,1.1-1.1,2.8,0,3.9c1.1,1.1,2.8,1.1,3.9,0c1.1-1.1,1.1-2.8,0-3.9
							C106.8-0.2,105.1-0.2,104,0.9C102.9,2,105.1-0.2,104,0.9z M107.5,4.3c-0.8,0.8-2.2,0.8-3,0c-0.8-0.8-0.8-2.2,0-3
							c0.8-0.8,2.2-0.8,3,0S108.3,3.5,107.5,4.3C106.6,5.1,108.3,3.5,107.5,4.3z"/>
					</g>
				</g>
				<g>
					<g>
						
							<ellipse transform="matrix(0.7071 -0.7071 0.7071 0.7071 -66.0501 36.3762)" class="st0" cx="10.9" cy="97.9" rx="2.8" ry="2.8"/>
						<path class="st0" d="M8.7,95.7c1.2-1.2,3.2-1.2,4.5,0s1.2,3.2,0,4.5c-1.2,1.2-3.2,1.2-4.5,0S7.4,96.9,8.7,95.7
							C9.9,94.5,7.4,96.9,8.7,95.7z M12.6,99.6c0.9-0.9,0.9-2.5,0-3.4c-0.9-0.9-2.5-0.9-3.4,0c-0.9,0.9-0.9,2.5,0,3.4
							C10.1,100.6,11.7,100.6,12.6,99.6C13.5,98.7,11.7,100.6,12.6,99.6z"/>
					</g>
				</g>
			</g>
		</g>
	</g>
	<g>
		<g>
			<g>
				<line x1="72.1" y1="12.7" x2="2.5" y2="82.2"/>
				<g>
					<line class="st2" x1="70.2" y1="14.5" x2="4.4" y2="80.3"/>
					<g>
						<g>
							
								<ellipse transform="matrix(0.7071 -0.7071 0.7071 0.7071 10.2014 53.8509)" class="st0" cx="70.1" cy="14.6" rx="2.4" ry="2.4"/>
							<path class="st0" d="M68.1,12.7c-1.1,1.1-1.1,2.8,0,3.9c1.1,1.1,2.8,1.1,3.9,0c1.1-1.1,1.1-2.8,0-3.9
								C71,11.6,69.2,11.6,68.1,12.7C67.1,13.7,69.2,11.6,68.1,12.7z M71.6,16.1c-0.8,0.8-2.2,0.8-3,0c-0.8-0.8-0.8-2.2,0-3
								c0.8-0.8,2.2-0.8,3,0C72.4,13.9,72.4,15.3,71.6,16.1C70.8,16.9,72.4,15.3,71.6,16.1z"/>
						</g>
					</g>
					<g>
						
							<ellipse transform="matrix(0.7071 -0.7071 0.7071 0.7071 -55.4255 26.6661)" class="st0" cx="4.5" cy="80.2" rx="2.8" ry="2.8"/>
					</g>
				</g>
			</g>
		</g>
		<g>
			<g>
				<g>
					<polyline class="st3" points="49.2,83.9 93.4,39.3 103.8,39.3 					"/>
					<g>
						<g>
							
								<ellipse transform="matrix(0.7044 -0.7098 0.7098 0.7044 -44.8685 59.7819)" class="st0" cx="49.3" cy="83.8" rx="2.9" ry="2.9"/>
							<path class="st0" d="M51.7,86.1c1.3-1.3,1.3-3.4,0-4.7c-1.3-1.3-3.4-1.3-4.7,0c-1.3,1.3-1.3,3.4,0,4.7
								C48.3,87.4,50.4,87.4,51.7,86.1C53,84.8,50.4,87.4,51.7,86.1z M47.5,82c1-1,2.6-1,3.6,0c1,1,1,2.6,0,3.6c-1,1-2.6,1-3.6,0
								C46.6,84.6,46.6,83,47.5,82C48.5,81,46.6,83,47.5,82z"/>
						</g>
					</g>
					<g>
						<circle class="st0" cx="103.7" cy="39.3" r="2.9"/>
					</g>
				</g>
			</g>
		</g>
		<path class="st4" d="M44.2,40.6c0,0,0.2,7.8-0.9,8.9L20,72.7c-1.1,1.1-9.3,1.4-9.3,1.4s0.4-8.1,1.5-9.2l23.3-23.1
			C36.7,40.6,44.2,40.6,44.2,40.6z"/>
		<path class="st5" d="M44.2,40.6c0,0,0.2,7.8-0.9,8.9L20,72.7c-1.1,1.1-9.3,1.4-9.3,1.4L44.2,40.6z"/>
		<path class="st6" d="M85.7,47.2c0,0,0.2,7.8-0.9,8.9L67.2,73.6c-1.1,1.1-9.3,1.4-9.3,1.4s0.4-8.1,1.5-9.2l17.7-17.5
			C78.2,47.1,85.7,47.2,85.7,47.2z"/>
		<path class="st4" d="M21,26.3c0,0,0.2,7.8-0.9,8.9l-7.3,7.1c-1.1,1.1-9.3,1.4-9.3,1.4s0.4-8.1,1.5-9.2l7.3-7.1
			C13.4,26.3,21,26.3,21,26.3z"/>
		<g>
			<g>
				<g>
					<polyline class="st1" points="59.9,3.3 20.5,42.4 20.7,50.5 15,54.8 3.1,54.8 					"/>
					<g>
						<g>
							
								<ellipse transform="matrix(0.7101 -0.7041 0.7041 0.7101 14.9473 43.1158)" class="st0" cx="59.8" cy="3.4" rx="2.4" ry="2.4"/>
							<path class="st0" d="M57.9,1.4c-1.1,1.1-1.1,2.8,0,3.9s2.8,1.1,3.9,0c1.1-1.1,1.1-2.8,0-3.9S59,0.4,57.9,1.4
								C56.8,2.5,59,0.4,57.9,1.4z M61.3,4.9c-0.8,0.8-2.2,0.8-3,0c-0.8-0.8-0.8-2.2,0-3c0.8-0.8,2.2-0.8,3,0
								C62.1,2.7,62.1,4.1,61.3,4.9C60.5,5.7,62.1,4.1,61.3,4.9z"/>
						</g>
					</g>
					<g>
						<g>
							
								<ellipse transform="matrix(4.212001e-03 -1 1 4.212001e-03 -51.5525 57.8075)" class="st0" cx="3.2" cy="54.8" rx="2.8" ry="2.8"/>
							<path class="st0" d="M3.3,51.6c1.7,0,3.1,1.4,3.1,3.2S5,57.9,3.2,57.9c-1.7,0-3.1-1.4-3.1-3.2S1.5,51.6,3.3,51.6
								C5,51.6,1.5,51.6,3.3,51.6z M3.2,57.2c1.3,0,2.4-1.1,2.4-2.4c0-1.3-1.1-2.4-2.4-2.4c-1.3,0-2.4,1.1-2.4,2.4
								C0.8,56.1,1.9,57.2,3.2,57.2C4.6,57.2,1.9,57.2,3.2,57.2z"/>
						</g>
					</g>
				</g>
			</g>
		</g>
		<path class="st7" d="M28.9,79.8c0,0,0-7.5,1.1-8.7l32-31.8c1.1-1.1,9-1.7,9-1.7L28.9,79.8z"/>
		<path class="st5" d="M21,26.3c0,0,0.2,7.8-0.9,8.9l-7.3,7.1c-1.1,1.1-9.3,1.4-9.3,1.4L21,26.3z"/>
		<g>
			<g>
				<path class="st8" d="M47.7,15.6c0,0,0.2,7.8-0.9,8.9l-9.8,9.6c-1.1,1.1-9.3,1.4-9.3,1.4s0.4-8.1,1.5-9.2l9.8-9.6
					C40.2,15.6,47.7,15.6,47.7,15.6z"/>
			</g>
			<g>
				<path class="st9" d="M47.7,15.6c0,0,0.2,7.8-0.9,8.9l-9.8,9.6c-1.1,1.1-9.3,1.4-9.3,1.4L47.7,15.6z"/>
			</g>
		</g>
		<g>
			<path class="st6" d="M47.7,15.7c0,0,0.2,7.8-0.9,8.9l-1.3,1.1c-1.1,1.1-9.3,1.4-9.3,1.4s0.4-8.1,1.5-9.2l1.3-1.1
				C40.2,15.7,47.7,15.7,47.7,15.7z"/>
			<path class="st10" d="M47.7,15.7c0,0,0.2,7.8-0.9,8.9l-1.3,1.1c-1.1,1.1-9.3,1.4-9.3,1.4L47.7,15.7z"/>
		</g>
		<g>
			<path class="st11" d="M63.9,21.1c0,0,0.3,7.8-0.9,9L39.8,53.2c-1.1,1.1-9.3,1.4-9.3,1.4s0.3-8.1,1.5-9.3l23.3-23.1
				C56.4,21,63.9,21.1,63.9,21.1z"/>
			<path class="st12" d="M63.9,21.1c0,0,0.3,7.8-0.9,9L39.8,53.2c-1.1,1.1-9.3,1.4-9.3,1.4L63.9,21.1z"/>
		</g>
		<g>
			<path class="st6" d="M40.1,44.8c0,0,0.3,7.8-0.8,9l-7.3,7.1c-1.1,1.1-9.3,1.4-9.3,1.4s0.3-8.1,1.5-9.3l7.3-7.1
				C32.5,44.8,40.1,44.8,40.1,44.8z"/>
			<path class="st10" d="M40.1,44.8c0,0,0.3,7.8-0.8,9l-7.3,7.1c-1.1,1.1-9.3,1.4-9.3,1.4L40.1,44.8z"/>
		</g>
		<path class="st13" d="M71,37.7c0,0,0.2,7.8-0.9,8.9l-32,31.8c-1.1,1.1-9.3,1.4-9.3,1.4L71,37.7z"/>
		<path class="st10" d="M85.7,47.2c0,0,0.2,7.8-0.9,8.9L67.2,73.6c-1.1,1.1-9.3,1.4-9.3,1.4L85.7,47.2z"/>
		<g>
			<path class="st4" d="M79.9,28.9c0,0,0.3,7.8-0.9,8.9L55.7,61c-1.1,1.1-9.4,1.3-9.4,1.3s0.5-8,1.6-9.1L71.2,30
				C72.3,28.9,79.9,28.9,79.9,28.9z"/>
			<path class="st5" d="M79.9,28.9c0,0,0.3,7.8-0.9,8.9L55.7,61c-1.1,1.1-9.4,1.4-9.4,1.4L79.9,28.9z"/>
		</g>
		<g>
			<path class="st4" d="M97.8,11.1c0,0,0.3,7.8-0.9,8.9L73.7,43.2c-1.1,1.1-9.4,1.3-9.4,1.3s0.5-8,1.6-9.1l23.3-23.2
				C90.3,11.1,97.8,11.1,97.8,11.1z"/>
			<path class="st5" d="M97.8,11.1c0,0,0.3,7.8-0.9,8.9L73.7,43.2c-1.1,1.1-9.4,1.4-9.4,1.4L97.8,11.1z"/>
		</g>
	</g>
	<g>
		<path class="st14" d="M61.2,47.5c0,0-0.6-7.2,0.4-8.2l8.6-8.3c1-1,8.5-0.8,8.5-0.8L61.2,47.5z"/>
	</g>
	<g>
		<path class="st15" d="M78.7,30.2c0,0,0.8,7.4-0.2,8.4l-8.6,8.3c-1,1-8.7,0.6-8.7,0.6L78.7,30.2z"/>
	</g>
</g>
<g id="Layer_5">
</g>
<g id="Layer_3">
</g>
<g id="Design">
</g>
</svg>
