<svg id="Layer_1" data-name="Layer 1" xmlns="http://www.w3.org/2000/svg" viewBox="0 0 301.3 107.8"><defs><style>.cls-1{fill:#fff;}.cls-2,.cls-3,.cls-4,.cls-5{fill:none;}.cls-3,.cls-4,.cls-5{stroke:#fff;stroke-miterlimit:10;}.cls-3{stroke-width:1.85px;}.cls-4{stroke-width:1.85px;}.cls-5{stroke-width:1.2px;}.cls-6{fill:#92002c;}.cls-7{fill:#d00050;}.cls-8{fill:#004185;}.cls-9{fill:#00958a;}.cls-10{fill:#00aeef;}.cls-11{fill:#00e5fe;}.cls-12{fill:#0071c5;}.cls-13{fill:#b18c62;}.cls-14{fill:#e7cb9e;}.cls-15{fill:#00d3c9;}.cls-16{fill:#490016;}.cls-17{fill:#680028;}</style></defs><g id="Layer_1-2" data-name="Layer 1"><path class="cls-1" d="M138,50.09a10.08,10.08,0,0,1-5,1.3c-5,0-7.4-3.2-7.4-6.5s2.5-6.6,7.7-6.6a9.43,9.43,0,0,1,4.6,1.1v2.9a7.65,7.65,0,0,0-4.4-1.4c-2.7,0-4.6,1.5-4.6,3.9s2.1,3.9,4.5,3.9a6.92,6.92,0,0,0,3.4-.9l1.2-.7v3Z"/><path class="cls-1" d="M147,51.29c-4.4,0-7.3-3.2-7.3-6.5,0-3,2.5-6.6,7.3-6.6,4.5,0,7.3,3.2,7.3,6.6C154.41,47.79,152,51.29,147,51.29ZM147,41a3.7,3.7,0,0,0-4,3.9,3.75,3.75,0,0,0,4,3.9,3.8,3.8,0,0,0,4-3.9C151.11,42.49,149.51,41,147,41Z"/><path class="cls-1" d="M169.31,51.19h-2.7l-7.1-7.9v7.9h-3.2V38.39h2.9l6.8,7.5v-7.5h3.1v12.8Z"/><path class="cls-1" d="M183.91,50.09a10.08,10.08,0,0,1-5,1.3c-5,0-7.4-3.2-7.4-6.5s2.5-6.6,7.7-6.6a9.43,9.43,0,0,1,4.6,1.1v2.9a7.65,7.65,0,0,0-4.4-1.4c-2.7,0-4.6,1.5-4.6,3.9s2.1,3.9,4.5,3.9a6.92,6.92,0,0,0,3.4-.9l1.2-.7Z"/><path class="cls-1" d="M192.91,51.29c-4.4,0-7.3-3.2-7.3-6.5,0-3,2.5-6.6,7.3-6.6,4.5,0,7.3,3.2,7.3,6.6C200.31,47.79,197.91,51.29,192.91,51.29ZM193,41a3.7,3.7,0,0,0-4,3.9,3.75,3.75,0,0,0,4,3.9,3.8,3.8,0,0,0,4-3.9A3.65,3.65,0,0,0,193,41Z"/><path class="cls-1" d="M207.31,38.39a6.65,6.65,0,0,1,3.4.6,3.6,3.6,0,0,1,1.7,3,3.19,3.19,0,0,1-2.2,3.1,4.19,4.19,0,0,1,1.8,2.4,22.07,22.07,0,0,1,1.2,2.7l.4.9h-3.5c-.3-.6-1.4-3.1-1.6-3.6-.9-1.6-1.5-1.6-2.4-1.6h-.5v5.2h-3.2V38.39Zm-1.7,2.3v2.9h1.3a2.57,2.57,0,0,0,1.4-.2,1.21,1.21,0,0,0,.7-1.2c0-1.5-1.4-1.5-1.8-1.5Z"/><path class="cls-1" d="M220.31,38.39a10.32,10.32,0,0,1,3.5.5,6.22,6.22,0,0,1,4.1,5.9,5.82,5.82,0,0,1-3.1,5.4,8.65,8.65,0,0,1-4.7,1h-5V38.39Zm-2,2.4v7.9h1.3a6.3,6.3,0,0,0,2.8-.4,3.66,3.66,0,0,0,2.1-3.6,3.6,3.6,0,0,0-2.2-3.6,6.88,6.88,0,0,0-2.5-.3Z"/><path class="cls-1" d="M233.31,51.19h-3.2V38.39h3.2Z"/><path class="cls-1" d="M249.31,51.19h-3.4l-1-2.5h-5.7l-1,2.5h-3.4l5.1-12.8h3.7Zm-7.5-9.7-1.9,4.9h3.9Z"/><path class="cls-1" d="M137.51,70.49a11.79,11.79,0,0,1-4.7,1c-4.9,0-7-3.5-7-6.4a6.62,6.62,0,0,1,6.9-6.7,10.66,10.66,0,0,1,4.5,1.1v1.9a9,9,0,0,0-4.5-1.3,4.92,4.92,0,0,0-5,4.9,4.78,4.78,0,0,0,5.1,4.9,8.31,8.31,0,0,0,2.8-.6v-2.7h-2.5V65h4.3v5.5Z"/><path class="cls-1" d="M147.41,60.19H142v3.9h5.2v1.6H142v4h5.6v1.6h-7.4V58.59h7.2v1.6Z"/><path class="cls-1" d="M161.81,71.29h-1.6l-8.5-9.8v9.8h-1.8V58.59h1.5l8.6,9.9v-9.9h1.7v12.7Z"/><path class="cls-1" d="M177.71,64.89c0,3.7-2.8,6.6-7,6.6a6.55,6.55,0,1,1,.1-13.1A6.58,6.58,0,0,1,177.71,64.89Zm-11.9.1a4.78,4.78,0,0,0,5,4.8,5.39,5.39,0,0,0,3.7-1.5,5.55,5.55,0,0,0,1.3-3.4,4.8,4.8,0,0,0-4.9-4.8A4.87,4.87,0,0,0,165.81,65Z"/><path class="cls-1" d="M191.81,71.29h-1.9v-9.9l-3.9,4.9h-.3l-4-4.9v9.9h-1.8V58.59h1.7l4.3,5.2,4.2-5.2h1.7Z"/><path class="cls-1" d="M201.81,60.19h-5.4v3.9h5.2v1.6h-5.2v4H202v1.6h-7.4V58.59h7.2v1.6Z"/><path class="cls-1" d="M216.31,60.19h-5v3.5h5v1.7h-5v5.9h-1.8V58.59h6.8Z"/><path class="cls-1" d="M231.41,64.89c0,3.7-2.8,6.6-7,6.6a6.56,6.56,0,1,1,7-6.6Zm-11.8.1a4.78,4.78,0,0,0,5,4.8,5.39,5.39,0,0,0,3.7-1.5,5.55,5.55,0,0,0,1.3-3.4,4.8,4.8,0,0,0-4.9-4.8A4.87,4.87,0,0,0,219.61,65Z"/><path class="cls-1" d="M244.41,65.79a5.45,5.45,0,0,1-1.4,4.3,5.94,5.94,0,0,1-4,1.4,5.53,5.53,0,0,1-4.8-2.2,6.65,6.65,0,0,1-.7-3.5v-7.2h1.8v7.2c0,1.7.2,2.3.8,3a3.58,3.58,0,0,0,2.9,1.1,3.43,3.43,0,0,0,3.3-1.7,5.39,5.39,0,0,0,.4-2.4v-7.2h1.8v7.2Z"/><path class="cls-1" d="M258.81,71.29h-1.6l-8.5-9.8v9.8H247V58.59h1.5l8.6,9.9v-9.9h1.7Z"/><path class="cls-1" d="M265.91,58.59a8,8,0,0,1,5,1.3,6.49,6.49,0,0,1,2.5,5.1,6.42,6.42,0,0,1-3.1,5.4,8.21,8.21,0,0,1-4.6,1h-4V58.59Zm-2.5,1.6v9.5h2.4a7.32,7.32,0,0,0,3.5-.7,4.8,4.8,0,0,0,2.1-4.1,4.4,4.4,0,0,0-2.7-4.2,6.35,6.35,0,0,0-3.1-.5Z"/><path class="cls-1" d="M278.91,58.59a6.43,6.43,0,0,1,2.2.4,3.3,3.3,0,0,1,2,3.1,3,3,0,0,1-2.1,3.1,9.21,9.21,0,0,1,2.8,3.5c.5.9.9,1.3,1.7,2.5h-2.2c-.4-.6-2.2-3.4-2.6-4-1.3-1.6-1.9-1.6-2.8-1.6h-.5v5.6h-1.8V58.59Zm-1.4,1.5v4h.7a6.17,6.17,0,0,0,1.8-.2,1.78,1.78,0,0,0,1.2-1.8,1.94,1.94,0,0,0-1-1.7,5.73,5.73,0,0,0-2.2-.3Z"/><path class="cls-1" d="M290.21,64.59v6.8h-1.9v-6.8l-4.7-6h2.2l3.4,4.4,3.5-4.4h2.2Z"/><line class="cls-2" x1="114.81" y1="4.29" x2="15.61" y2="103.49"/><line class="cls-3" x1="113.01" y1="6.09" x2="17.71" y2="101.39"/><circle class="cls-1" cx="112.87" cy="6.18" r="2.4"/><path class="cls-1" d="M110.91,4.29a2.76,2.76,0,1,0,3.9,0,2.72,2.72,0,0,0-3.9,0Zm3.5,3.4a2.17,2.17,0,0,1-3,0,2.17,2.17,0,0,1,0-3,2.18,2.18,0,0,1,3,0,2.18,2.18,0,0,1,0,3C113.51,8.49,115.21,6.89,114.41,7.69Z"/><circle class="cls-1" cx="17.79" cy="101.28" r="2.8"/><path class="cls-1" d="M15.61,99.09a3.26,3.26,0,0,1,4.5,0,3.17,3.17,0,0,1,0,4.5,3.26,3.26,0,0,1-4.5,0,3.08,3.08,0,0,1,0-4.5C16.81,97.89,14.31,100.29,15.61,99.09Zm3.9,3.9a2.4,2.4,0,1,0-3.4-3.4,2.48,2.48,0,0,0,0,3.4,2.3,2.3,0,0,0,3.4,0C20.41,102.09,18.61,104,19.51,103Z"/><line class="cls-2" x1="79.01" y1="16.09" x2="9.41" y2="85.59"/><line class="cls-4" x1="77.11" y1="17.89" x2="11.31" y2="83.69"/><circle class="cls-1" cx="77" cy="18" r="2.4"/><path class="cls-1" d="M75,16.09a2.76,2.76,0,1,0,3.9,0,2.72,2.72,0,0,0-3.9,0Zm3.5,3.4a2.12,2.12,0,1,1,0-3,2.17,2.17,0,0,1,0,3Z"/><circle class="cls-1" cx="11.37" cy="83.58" r="2.8"/><polyline class="cls-5" points="56.11 87.29 100.31 42.69 110.71 42.69"/><circle class="cls-1" cx="56.25" cy="87.21" r="2.9"/><path class="cls-1" d="M58.61,89.49a3.32,3.32,0,1,0-4.7,0,3.32,3.32,0,0,0,4.7,0Zm-4.2-4.1a2.55,2.55,0,1,1,0,3.6,2.74,2.74,0,0,1,0-3.6C55.41,84.39,53.51,86.39,54.41,85.39Z"/><circle class="cls-1" cx="110.61" cy="42.69" r="2.9"/><path class="cls-6" d="M51.11,44s.2,7.8-.9,8.9l-23.3,23.2c-1.1,1.1-9.3,1.4-9.3,1.4s.4-8.1,1.5-9.2l23.3-23.1C43.61,44,51.11,44,51.11,44Z"/><path class="cls-7" d="M51.11,44s.2,7.8-.9,8.9l-23.3,23.2c-1.1,1.1-9.3,1.4-9.3,1.4Z"/><path class="cls-8" d="M92.61,50.59s.2,7.8-.9,8.9L74.11,77c-1.1,1.1-9.3,1.4-9.3,1.4s.4-8.1,1.5-9.2L84,51.69C85.11,50.49,92.61,50.59,92.61,50.59Z"/><path class="cls-6" d="M27.91,29.69s.2,7.8-.9,8.9l-7.3,7.1c-1.1,1.1-9.3,1.4-9.3,1.4s.4-8.1,1.5-9.2l7.3-7.1C20.31,29.69,27.91,29.69,27.91,29.69Z"/><polyline class="cls-3" points="66.81 6.69 27.41 45.79 27.61 53.89 21.91 58.19 10.01 58.19"/><circle class="cls-1" cx="66.71" cy="6.81" r="2.4"/><path class="cls-1" d="M64.81,4.79a2.76,2.76,0,1,0,3.9,0,2.81,2.81,0,0,0-3.9,0C63.71,5.89,65.91,3.79,64.81,4.79Zm3.4,3.5a2.18,2.18,0,0,1-3,0,2.18,2.18,0,0,1,0-3,2.18,2.18,0,0,1,3,0,2.17,2.17,0,0,1,0,3Z"/><circle class="cls-1" cx="10.17" cy="58.23" r="2.8"/><path class="cls-1" d="M10.21,55a3.14,3.14,0,0,1,3.1,3.2,3.08,3.08,0,0,1-3.2,3.1A3.14,3.14,0,0,1,7,58.09a3.08,3.08,0,0,1,3.2-3.1Zm-.1,5.6a2.4,2.4,0,1,0-2.4-2.4,2.43,2.43,0,0,0,2.4,2.4Z"/><path class="cls-9" d="M35.81,83.19s0-7.5,1.1-8.7l32-31.8c1.1-1.1,9-1.7,9-1.7Z"/><path class="cls-7" d="M27.91,29.69s.2,7.8-.9,8.9l-7.3,7.1c-1.1,1.1-9.3,1.4-9.3,1.4Z"/><path class="cls-10" d="M54.61,19s.2,7.8-.9,8.9l-9.8,9.6c-1.1,1.1-9.3,1.4-9.3,1.4s.4-8.1,1.5-9.2l9.8-9.6C47.11,19,54.61,19,54.61,19Z"/><path class="cls-11" d="M54.61,19s.2,7.8-.9,8.9l-9.8,9.6c-1.1,1.1-9.3,1.4-9.3,1.4Z"/><path class="cls-8" d="M54.61,19.09s.2,7.8-.9,8.9l-1.3,1.1c-1.1,1.1-9.3,1.4-9.3,1.4s.4-8.1,1.5-9.2l1.3-1.1C47.11,19.09,54.61,19.09,54.61,19.09Z"/><path class="cls-12" d="M54.61,19.09s.2,7.8-.9,8.9l-1.3,1.1c-1.1,1.1-9.3,1.4-9.3,1.4Z"/><path class="cls-13" d="M70.81,24.49s.3,7.8-.9,9l-23.2,23.1c-1.1,1.1-9.3,1.4-9.3,1.4s.3-8.1,1.5-9.3l23.3-23.1C63.31,24.39,70.81,24.49,70.81,24.49Z"/><path class="cls-14" d="M70.81,24.49s.3,7.8-.9,9l-23.2,23.1c-1.1,1.1-9.3,1.4-9.3,1.4Z"/><path class="cls-8" d="M47,48.19s.3,7.8-.8,9l-7.3,7.1c-1.1,1.1-9.3,1.4-9.3,1.4s.3-8.1,1.5-9.3l7.3-7.1C39.41,48.19,47,48.19,47,48.19Z"/><path class="cls-12" d="M47,48.19s.3,7.8-.8,9l-7.3,7.1c-1.1,1.1-9.3,1.4-9.3,1.4Z"/><path class="cls-15" d="M77.91,41.09s.2,7.8-.9,8.9L45,81.79c-1.1,1.1-9.3,1.4-9.3,1.4Z"/><path class="cls-12" d="M92.61,50.59s.2,7.8-.9,8.9L74.11,77c-1.1,1.1-9.3,1.4-9.3,1.4Z"/><path class="cls-6" d="M86.81,32.29s.3,7.8-.9,8.9l-23.3,23.2c-1.1,1.1-9.4,1.3-9.4,1.3s.5-8,1.6-9.1l23.3-23.2C79.21,32.29,86.81,32.29,86.81,32.29Z"/><path class="cls-7" d="M86.81,32.29s.3,7.8-.9,8.9l-23.3,23.2c-1.1,1.1-9.4,1.4-9.4,1.4Z"/><path class="cls-6" d="M104.71,14.49s.3,7.8-.9,8.9l-23.2,23.2c-1.1,1.1-9.4,1.3-9.4,1.3s.5-8,1.6-9.1l23.3-23.2C97.21,14.49,104.71,14.49,104.71,14.49Z"/><path class="cls-7" d="M104.71,14.49s.3,7.8-.9,8.9l-23.2,23.2c-1.1,1.1-9.4,1.4-9.4,1.4Z"/><path class="cls-16" d="M68.11,50.89s-.6-7.2.4-8.2l8.6-8.3c1-1,8.5-.8,8.5-.8Z"/><path class="cls-17" d="M85.61,33.59s.8,7.4-.2,8.4l-8.6,8.3c-1,1-8.7.6-8.7.6Z"/></g></svg>