<?xml version="1.0" encoding="utf-8"?>
<!-- Generator: Adobe Illustrator 21.0.0, SVG Export Plug-In . SVG Version: 6.00 Build 0)  -->
<svg version="1.1" xmlns="http://www.w3.org/2000/svg" xmlns:xlink="http://www.w3.org/1999/xlink" x="0px" y="0px"
	 viewBox="0 0 301.3 107.8" style="enable-background:new 0 0 301.3 107.8;" xml:space="preserve">
<style type="text/css">
	.st0{display:none;}
	.st1{fill:none;stroke:#000000;stroke-width:1.8504;stroke-miterlimit:10;}
	.st2{fill:#FFFFFF;}
	.st3{fill:none;stroke:#000000;stroke-width:1.2;stroke-miterlimit:10;}
	.st4{fill:#92002C;}
	.st5{fill:#D00050;}
	.st6{fill:#004185;}
	.st7{fill:none;stroke:#000000;stroke-width:1.85;stroke-miterlimit:10;}
	.st8{fill:#00958A;}
	.st9{fill:#00AEEF;}
	.st10{fill:#00E5FE;}
	.st11{fill:#0071C5;}
	.st12{fill:#B18C62;}
	.st13{fill:#E7CB9E;}
	.st14{fill:#00D3C9;}
	.st15{fill:#680028;}
	.st16{fill:#490016;}
</style>
<g id="Layer_1">
	<g id="Capa_1" class="st0">
	</g>
	<g>
		<path d="M137.9,50.1c-1.9,1-3.4,1.3-5,1.3c-5,0-7.4-3.2-7.4-6.5c0-3.2,2.5-6.6,7.7-6.6c2.3,0,3.9,0.7,4.6,1.1v2.9
			c-0.5-0.4-2.2-1.4-4.4-1.4c-2.7,0-4.6,1.5-4.6,3.9c0,2.5,2.1,3.9,4.5,3.9c1.2,0,2.3-0.3,3.4-0.9l1.2-0.7V50.1z"/>
		<path d="M147,51.4c-4.4,0-7.3-3.2-7.3-6.5c0-3,2.5-6.6,7.3-6.6c4.5,0,7.3,3.2,7.3,6.6C154.4,47.8,151.9,51.4,147,51.4z M147,41
			c-2.3,0-4,1.4-4,3.9c0,3.1,2.5,3.9,4,3.9c2,0,4-1.3,4-3.9C151.1,42.5,149.5,41,147,41z"/>
		<path d="M169.3,51.2h-2.7l-7.1-7.9v7.9h-3.2V38.4h2.9l6.8,7.5v-7.5h3.1V51.2z"/>
		<path d="M183.9,50.1c-1.9,1-3.4,1.3-5,1.3c-5,0-7.4-3.2-7.4-6.5c0-3.2,2.5-6.6,7.7-6.6c2.3,0,3.9,0.7,4.6,1.1v2.9
			c-0.5-0.4-2.2-1.4-4.4-1.4c-2.7,0-4.6,1.5-4.6,3.9c0,2.5,2.1,3.9,4.5,3.9c1.2,0,2.3-0.3,3.4-0.9l1.2-0.7V50.1z"/>
		<path d="M192.9,51.4c-4.4,0-7.3-3.2-7.3-6.5c0-3,2.5-6.6,7.3-6.6c4.5,0,7.3,3.2,7.3,6.6C200.3,47.8,197.9,51.4,192.9,51.4z
			 M192.9,41c-2.3,0-4,1.4-4,3.9c0,3.1,2.5,3.9,4,3.9c2,0,4-1.3,4-3.9C197,42.5,195.4,41,192.9,41z"/>
		<path d="M207.3,38.4c1.2,0,2.3,0,3.4,0.6c0.7,0.4,1.7,1.5,1.7,3c0,2.1-1.6,2.9-2.2,3.1c0.9,0.4,1.6,1.7,1.8,2.4
			c0.4,0.7,0.9,1.9,1.2,2.7l0.4,0.9h-3.5c-0.3-0.6-1.4-3.1-1.6-3.6c-0.9-1.6-1.5-1.6-2.4-1.6h-0.5v5.2h-3.2V38.4H207.3z M205.6,40.7
			v2.9h1.3c0.8,0,1,0,1.4-0.2c0.5-0.2,0.7-0.7,0.7-1.2c0-1.5-1.4-1.5-1.8-1.5H205.6z"/>
		<path d="M220.3,38.4c0.8,0,2,0,3.5,0.5c1,0.4,4.1,1.9,4.1,5.9c0,1.3-0.3,3.9-3.1,5.4c-1.2,0.7-2.5,1-4.7,1h-5V38.4H220.3z
			 M218.3,40.8v7.9h1.3c1.8,0,2.3-0.2,2.8-0.4c1.3-0.6,2.1-1.8,2.1-3.6c0-1.4-0.5-2.9-2.2-3.6c-0.8-0.3-1.6-0.3-2.5-0.3H218.3z"/>
		<path d="M233.3,51.2h-3.2V38.4h3.2V51.2z"/>
		<path d="M249.3,51.2h-3.4l-1-2.5h-5.7l-1,2.5h-3.4l5.1-12.8h3.7L249.3,51.2z M241.8,41.5l-1.9,4.9h3.9L241.8,41.5z"/>
		<path d="M137.4,70.5c-1,0.4-2.5,1-4.7,1c-4.9,0-7-3.5-7-6.4c0-3.4,2.5-6.7,6.9-6.7c1.8,0,3.1,0.5,4.5,1.1v1.9
			c-2.1-1.2-3.8-1.3-4.5-1.3c-2.5,0-5,1.9-5,4.9c0,2.8,2,4.9,5.1,4.9c0.9,0,1.6-0.2,2.8-0.6v-2.7h-2.5v-1.6h4.3V70.5z"/>
		<path d="M147.3,60.2h-5.4v3.9h5.2v1.6h-5.2v4h5.6v1.6h-7.4V58.6h7.2V60.2z"/>
		<path d="M161.7,71.4h-1.6l-8.5-9.8v9.8h-1.7V58.6h1.5l8.6,9.9v-9.9h1.7V71.4z"/>
		<path d="M177.6,64.9c0,3.7-2.8,6.6-7,6.6c-4,0-6.7-3-6.7-6.5c0-3.4,2.5-6.6,6.8-6.6C175,58.4,177.6,61.5,177.6,64.9z M165.8,65
			c0,2.9,2.3,4.8,5,4.8c1.4,0,2.8-0.6,3.7-1.5c0.8-0.9,1.3-2.3,1.3-3.4c0-2.1-1.6-4.8-4.9-4.8C167.2,60.1,165.8,62.9,165.8,65z"/>
		<path d="M191.8,71.4h-1.8v-9.9l-3.9,4.9h-0.3l-4-4.9v9.9h-1.8V58.6h1.7l4.3,5.2l4.2-5.2h1.7V71.4z"/>
		<path d="M201.8,60.2h-5.4v3.9h5.2v1.6h-5.2v4h5.6v1.6h-7.4V58.6h7.2V60.2z"/>
		<path d="M216.3,60.2h-5v3.5h5v1.6h-5v5.9h-1.8V58.6h6.8V60.2z"/>
		<path d="M231.4,64.9c0,3.7-2.8,6.6-7,6.6c-4,0-6.7-3-6.7-6.5c0-3.4,2.5-6.6,6.8-6.6C228.8,58.4,231.4,61.5,231.4,64.9z M219.6,65
			c0,2.9,2.3,4.8,5,4.8c1.4,0,2.8-0.6,3.7-1.5c0.8-0.9,1.3-2.3,1.3-3.4c0-2.1-1.6-4.8-4.9-4.8C221,60.1,219.6,62.9,219.6,65z"/>
		<path d="M244.4,65.8c0,1.2,0,3-1.4,4.3c-1.1,1-2.6,1.4-4,1.4c-1.8,0-3.8-0.6-4.8-2.2c-0.7-1.1-0.7-2.6-0.7-3.5v-7.2h1.8v7.2
			c0,1.7,0.2,2.3,0.8,3c0.5,0.6,1.4,1.1,2.9,1.1c2.1,0,3-1.1,3.3-1.7c0.2-0.4,0.4-1.1,0.4-2.4v-7.2h1.8V65.8z"/>
		<path d="M258.8,71.4h-1.6l-8.5-9.8v9.8H247V58.6h1.5l8.6,9.9v-9.9h1.7V71.4z"/>
		<path d="M265.9,58.6c1.2,0,3.3,0,5,1.3c1.4,1.1,2.5,2.9,2.5,5.1c0,3.2-2.3,4.9-3.1,5.4c-1.6,1-3.3,1-4.6,1h-4V58.6H265.9z
			 M263.4,60.2v9.5h2.4c1,0,2.5-0.1,3.5-0.7c1.3-0.8,2.1-2.4,2.1-4.1c0-1.6-0.7-3.3-2.7-4.2c-1-0.5-1.9-0.5-3.1-0.5H263.4z"/>
		<path d="M278.8,58.6c0.6,0,1.4,0.1,2.2,0.4c1.4,0.6,2,1.9,2,3.1c0,1.5-0.7,2.6-2.1,3.1c1.2,0.8,1.9,1.9,2.8,3.5
			c0.5,0.9,0.9,1.3,1.7,2.5h-2.2c-0.4-0.6-2.2-3.4-2.6-4c-1.3-1.6-1.9-1.6-2.8-1.6h-0.5v5.6h-1.8V58.6H278.8z M277.5,60.1v4h0.7
			c0.3,0,1.3,0,1.8-0.2c0.9-0.3,1.2-1.1,1.2-1.8c0-0.7-0.4-1.4-1-1.7c-0.5-0.2-1.1-0.3-2.2-0.3H277.5z"/>
		<path d="M290.2,64.6v6.8h-1.9v-6.8l-4.7-6h2.2l3.4,4.4l3.5-4.4h2.2L290.2,64.6z"/>
	</g>
	<g>
		<g>
			<g>
				<line x1="78.9" y1="16.1" x2="9.4" y2="85.6"/>
				<g>
					<line class="st1" x1="77.1" y1="17.9" x2="11.3" y2="83.7"/>
					<g>
						<g>
							<ellipse transform="matrix(0.7071 -0.7071 0.7071 0.7071 9.807 59.707)" class="st2" cx="77" cy="18" rx="2.4" ry="2.4"/>
							<path d="M75,16.1c-1.1,1.1-1.1,2.8,0,3.9c1.1,1.1,2.8,1.1,3.9,0c1.1-1.1,1.1-2.8,0-3.9S76.1,15,75,16.1
								C73.9,17.1,76.1,15,75,16.1z M78.5,19.5c-0.8,0.8-2.2,0.8-3,0c-0.8-0.8-0.8-2.2,0-3c0.8-0.8,2.2-0.8,3,0
								C79.3,17.3,79.3,18.7,78.5,19.5C77.6,20.3,79.3,18.7,78.5,19.5z"/>
						</g>
					</g>
					<g>
						<ellipse transform="matrix(0.7071 -0.7071 0.7071 0.7071 -55.8186 32.5244)" cx="11.4" cy="83.6" rx="2.8" ry="2.8"/>
					</g>
				</g>
			</g>
		</g>
		<g>
			<g>
				<g>
					<polyline class="st3" points="56.1,87.3 100.3,42.7 110.7,42.7 					"/>
					<g>
						<g>
							
								<ellipse transform="matrix(0.7045 -0.7098 0.7098 0.7045 -45.2516 65.6644)" class="st2" cx="56.2" cy="87.2" rx="2.9" ry="2.9"/>
							<path d="M58.6,89.5c1.3-1.3,1.3-3.4,0-4.7c-1.3-1.3-3.4-1.3-4.7,0c-1.3,1.3-1.3,3.4,0,4.7C55.2,90.8,57.3,90.8,58.6,89.5
								C59.9,88.2,57.3,90.8,58.6,89.5z M54.4,85.4c1-1,2.6-1,3.6,0c1,1,1,2.6,0,3.6c-1,1-2.6,1-3.6,0C53.4,88,53.4,86.4,54.4,85.4
								C55.4,84.4,53.4,86.4,54.4,85.4z"/>
						</g>
					</g>
					<g>
						<circle cx="110.6" cy="42.7" r="2.9"/>
					</g>
				</g>
			</g>
		</g>
		<path class="st4" d="M51.1,44c0,0,0.2,7.8-0.9,8.9L26.9,76.1c-1.1,1.1-9.3,1.4-9.3,1.4s0.4-8.1,1.5-9.2l23.3-23.1
			C43.6,44,51.1,44,51.1,44z"/>
		<path class="st5" d="M51.1,44c0,0,0.2,7.8-0.9,8.9L26.9,76.1c-1.1,1.1-9.3,1.4-9.3,1.4L51.1,44z"/>
		<path class="st6" d="M92.6,50.6c0,0,0.2,7.8-0.9,8.9L74.1,77c-1.1,1.1-9.3,1.4-9.3,1.4s0.4-8.1,1.5-9.2L84,51.6
			C85.1,50.5,92.6,50.6,92.6,50.6z"/>
		<path class="st4" d="M27.8,29.7c0,0,0.2,7.8-0.9,8.9l-7.3,7.1c-1.1,1.1-9.3,1.4-9.3,1.4s0.4-8.1,1.5-9.2l7.3-7.1
			C20.3,29.7,27.8,29.7,27.8,29.7z"/>
		<g>
			<g>
				<g>
					<polyline class="st7" points="66.8,6.7 27.4,45.8 27.5,53.9 21.9,58.2 10,58.2 					"/>
					<g>
						<g>
							
								<ellipse transform="matrix(0.7101 -0.7041 0.7041 0.7101 14.5438 48.9433)" class="st2" cx="66.7" cy="6.8" rx="2.4" ry="2.4"/>
							<path d="M64.8,4.9c-1.1,1.1-1.1,2.8,0,3.9c1.1,1.1,2.8,1.1,3.9,0c1.1-1.1,1.1-2.8,0-3.9C67.6,3.8,65.8,3.8,64.8,4.9
								C63.7,5.9,65.8,3.8,64.8,4.9z M68.2,8.3c-0.8,0.8-2.2,0.8-3,0c-0.8-0.8-0.8-2.2,0-3c0.8-0.8,2.2-0.8,3,0
								C69,6.2,69,7.5,68.2,8.3C67.4,9.1,69,7.5,68.2,8.3z"/>
						</g>
					</g>
					<g>
						<g>
							
								<ellipse transform="matrix(4.211990e-03 -1 1 4.211990e-03 -48.1101 68.0716)" class="st2" cx="10.1" cy="58.2" rx="2.8" ry="2.8"/>
							<path d="M10.1,55c1.7,0,3.1,1.4,3.1,3.2s-1.4,3.1-3.2,3.1c-1.7,0-3.1-1.4-3.1-3.2C7,56.4,8.4,55,10.1,55
								C11.9,55,8.4,55,10.1,55z M10.1,60.6c1.3,0,2.4-1.1,2.4-2.4s-1.1-2.4-2.4-2.4c-1.3,0-2.4,1.1-2.4,2.4
								C7.7,59.5,8.8,60.6,10.1,60.6C11.4,60.6,8.8,60.6,10.1,60.6z"/>
						</g>
					</g>
				</g>
			</g>
		</g>
		<g>
			<g>
				<line x1="114.8" y1="4.3" x2="15.5" y2="103.6"/>
				<g>
					<line class="st7" x1="112.9" y1="6.1" x2="17.6" y2="101.4"/>
					<g>
						<g>
							
								<ellipse transform="matrix(0.7071 -0.7071 0.7071 0.7071 28.6393 81.6187)" class="st2" cx="112.8" cy="6.2" rx="2.4" ry="2.4"/>
							<path d="M110.9,4.3c-1.1,1.1-1.1,2.8,0,3.9c1.1,1.1,2.8,1.1,3.9,0c1.1-1.1,1.1-2.8,0-3.9C113.7,3.2,112,3.2,110.9,4.3
								C109.8,5.4,112,3.2,110.9,4.3z M114.3,7.7c-0.8,0.8-2.2,0.8-3,0c-0.8-0.8-0.8-2.2,0-3c0.8-0.8,2.2-0.8,3,0
								C115.2,5.6,115.2,6.9,114.3,7.7C113.5,8.6,115.2,6.9,114.3,7.7z"/>
						</g>
					</g>
					<g>
						<g>
							
								<ellipse transform="matrix(0.7071 -0.7071 0.7071 0.7071 -66.4433 42.2346)" class="st2" cx="17.8" cy="101.3" rx="2.8" ry="2.8"/>
							<path d="M15.5,99.1c1.2-1.2,3.2-1.2,4.5,0s1.2,3.2,0,4.5c-1.2,1.2-3.2,1.2-4.5,0C14.3,102.3,14.3,100.3,15.5,99.1
								C16.8,97.9,14.3,100.3,15.5,99.1z M19.5,103c0.9-0.9,0.9-2.5,0-3.4c-0.9-0.9-2.5-0.9-3.4,0c-0.9,0.9-0.9,2.5,0,3.4
								C17,104,18.5,104,19.5,103C20.4,102.1,18.5,104,19.5,103z"/>
						</g>
					</g>
				</g>
			</g>
		</g>
		<path class="st8" d="M53.2,65.7c0,0,4.9-0.3,9.2-1.3L45,81.8c-1.1,1.1-9.3,1.4-9.3,1.4s0.4-8.1,1.5-9.2l18.1-17.9
			C54.7,59.6,53.2,65.7,53.2,65.7z"/>
		<path class="st5" d="M27.8,29.7c0,0,0.2,7.8-0.9,8.9l-7.3,7.1c-1.1,1.1-9.3,1.4-9.3,1.4L27.8,29.7z"/>
		<g>
			<g>
				<path class="st9" d="M54.6,19c0,0,0.2,7.8-0.9,8.9L44,37.6c-1.1,1.1-9.3,1.4-9.3,1.4s0.4-8.1,1.5-9.2l9.8-9.6
					C47.1,19,54.6,19,54.6,19z"/>
			</g>
			<g>
				<path class="st10" d="M54.6,19c0,0,0.2,7.8-0.9,8.9L44,37.6c-1.1,1.1-9.3,1.4-9.3,1.4L54.6,19z"/>
			</g>
		</g>
		<g>
			<path class="st6" d="M54.6,19.1c0,0,0.2,7.8-0.9,8.9l-1.3,1.1c-1.1,1.1-9.3,1.4-9.3,1.4s0.4-8.1,1.5-9.2l1.3-1.1
				C47.1,19.1,54.6,19.1,54.6,19.1z"/>
			<path class="st11" d="M54.6,19.1c0,0,0.2,7.8-0.9,8.9l-1.3,1.1c-1.1,1.1-9.3,1.4-9.3,1.4L54.6,19.1z"/>
		</g>
		<g>
			<path class="st12" d="M70.8,24.5c0,0,0.3,7.8-0.9,9L46.6,56.6c-1.1,1.1-9.3,1.4-9.3,1.4s0.3-8.1,1.5-9.3l23.3-23.1
				C63.2,24.4,70.8,24.5,70.8,24.5z"/>
			<path class="st13" d="M70.8,24.5c0,0,0.3,7.8-0.9,9L46.6,56.6c-1.1,1.1-9.3,1.4-9.3,1.4L70.8,24.5z"/>
		</g>
		<g>
			<path class="st6" d="M46.9,48.2c0,0,0.3,7.8-0.8,9l-7.3,7.1c-1.1,1.1-9.3,1.4-9.3,1.4s0.3-8.1,1.5-9.3l7.3-7.1
				C39.4,48.2,46.9,48.2,46.9,48.2z"/>
			<path class="st11" d="M46.9,48.2c0,0,0.3,7.8-0.8,9l-7.3,7.1c-1.1,1.1-9.3,1.4-9.3,1.4L46.9,48.2z"/>
		</g>
		<path class="st14" d="M77.8,41.1c0,0,0.2,7.8-0.9,8.9L45,81.8c-1.1,1.1-9.3,1.4-9.3,1.4L77.8,41.1z"/>
		<path class="st11" d="M92.6,50.6c0,0,0.2,7.8-0.9,8.9L74.1,77c-1.1,1.1-9.3,1.4-9.3,1.4L92.6,50.6z"/>
		<g>
			<path class="st4" d="M86.7,32.3c0,0,0.3,7.8-0.9,8.9L62.6,64.4c-1.1,1.1-9.4,1.3-9.4,1.3s0.5-8,1.6-9.1l23.3-23.2
				C79.2,32.3,86.7,32.3,86.7,32.3z"/>
			<path class="st5" d="M86.7,32.3c0,0,0.3,7.8-0.9,8.9L62.6,64.4c-1.1,1.1-9.4,1.4-9.4,1.4L86.7,32.3z"/>
		</g>
		<g>
			<path class="st4" d="M104.7,14.5c0,0,0.3,7.8-0.9,8.9L80.6,46.7c-1.1,1.1-9.4,1.3-9.4,1.3s0.5-8,1.6-9.1l23.3-23.2
				C97.2,14.5,104.7,14.5,104.7,14.5z"/>
			<path class="st5" d="M104.7,14.5c0,0,0.3,7.8-0.9,8.9L80.6,46.7c-1.1,1.1-9.4,1.4-9.4,1.4L104.7,14.5z"/>
		</g>
	</g>
	<g>
		<path class="st15" d="M85.6,33.6c0,0,0.8,7.4-0.2,8.4l-8.6,8.3c-1,1-8.7,0.6-8.7,0.6L85.6,33.6z"/>
	</g>
	<g>
		<path class="st16" d="M68.1,50.9c0,0-0.6-7.2,0.4-8.2l8.6-8.3c1-1,8.5-0.8,8.5-0.8L68.1,50.9z"/>
	</g>
</g>
<g id="Layer_5">
</g>
<g id="Layer_3">
</g>
<g id="Design">
</g>
</svg>
